<?xml version="1.0" encoding="UTF-8" standalone="no"?>
<!-- Created with Inkscape (http://www.inkscape.org/) -->

<svg
   xmlns:dc="http://purl.org/dc/elements/1.1/"
   xmlns:cc="http://creativecommons.org/ns#"
   xmlns:rdf="http://www.w3.org/1999/02/22-rdf-syntax-ns#"
   xmlns:svg="http://www.w3.org/2000/svg"
   xmlns="http://www.w3.org/2000/svg"
   xmlns:sodipodi="http://sodipodi.sourceforge.net/DTD/sodipodi-0.dtd"
   xmlns:inkscape="http://www.inkscape.org/namespaces/inkscape"
   width="32"
   height="32"
   id="svg4910"
   version="1.1"
   inkscape:version="0.91pre2 r13516"
   viewBox="0 0 32 32.000001"
   sodipodi:docname="as_vc_icon.svg">
  <defs
     id="defs4912">
    <clipPath
       id="clipPath3645-5-4-0"
       clipPathUnits="userSpaceOnUse">
      <path
         inkscape:connector-curvature="0"
         id="path3647-6-4-7"
         d="m 0,14400 14400,0 L 14400,0 0,0 0,14400 Z" />
    </clipPath>
    <clipPath
       id="clipPath3645-5-4"
       clipPathUnits="userSpaceOnUse">
      <path
         inkscape:connector-curvature="0"
         id="path3647-6-4"
         d="m 0,14400 14400,0 L 14400,0 0,0 0,14400 Z" />
    </clipPath>
    <clipPath
       id="clipPath3513"
       clipPathUnits="userSpaceOnUse">
      <path
         inkscape:connector-curvature="0"
         id="path3515"
         d="m 0,14400 14400,0 L 14400,0 0,0 0,14400 Z" />
    </clipPath>
    <clipPath
       id="clipPath3381"
       clipPathUnits="userSpaceOnUse">
      <path
         inkscape:connector-curvature="0"
         id="path3383"
         d="m 0,14400 14400,0 L 14400,0 0,0 0,14400 Z" />
    </clipPath>
    <clipPath
       id="clipPath3367"
       clipPathUnits="userSpaceOnUse">
      <path
         inkscape:connector-curvature="0"
         id="path3369"
         d="m 0,14400 14400,0 L 14400,0 0,0 0,14400 Z" />
    </clipPath>
  </defs>
  <sodipodi:namedview
     id="base"
     pagecolor="#ffffff"
     bordercolor="#666666"
     borderopacity="1.0"
     inkscape:pageopacity="0.0"
     inkscape:pageshadow="2"
     inkscape:zoom="5.6568543"
     inkscape:cx="10.915576"
     inkscape:cy="-8.0662342"
     inkscape:document-units="px"
     inkscape:current-layer="layer1"
     showgrid="false"
     inkscape:window-width="1280"
     inkscape:window-height="962"
     inkscape:window-x="-8"
     inkscape:window-y="-8"
     inkscape:window-maximized="1" />
  <metadata
     id="metadata4915">
    <rdf:RDF>
      <cc:Work
         rdf:about="">
        <dc:format>image/svg+xml</dc:format>
        <dc:type
           rdf:resource="http://purl.org/dc/dcmitype/StillImage" />
        <dc:title></dc:title>
      </cc:Work>
    </rdf:RDF>
  </metadata>
  <g
     inkscape:label="Layer 1"
     inkscape:groupmode="layer"
     id="layer1"
     transform="translate(0,-1020.3622)">
    <g
       transform="matrix(0.10810738,0,0,-0.10810753,-762.1557,1818.4661)"
       id="g3377">
      <g
         clip-path="url(#clipPath3381)"
         id="g3379">
        <g
           transform="translate(7345.9873,7234.5)"
           id="g3385">
          <path
             inkscape:connector-curvature="0"
             id="path3387"
             style="fill:#00a99d;fill-opacity:1;fill-rule:nonzero;stroke:none"
             d="m 0,0 c 0,-81.738 -66.263,-148.001 -148.001,-148.001 -81.739,0 -148.001,66.263 -148.001,148.001 0,81.738 66.262,148.001 148.001,148.001 C -66.263,148.001 0,81.738 0,0" />
        </g>
      </g>
    </g>
    <path
       style="color:#000000;font-style:normal;font-variant:normal;font-weight:normal;font-stretch:normal;font-size:medium;line-height:normal;font-family:sans-serif;text-indent:0;text-align:start;text-decoration:none;text-decoration-line:none;text-decoration-style:solid;text-decoration-color:#000000;letter-spacing:normal;word-spacing:normal;text-transform:none;direction:ltr;block-progression:tb;writing-mode:lr-tb;baseline-shift:baseline;text-anchor:start;clip-rule:nonzero;display:inline;overflow:visible;visibility:visible;opacity:1;isolation:auto;mix-blend-mode:normal;color-interpolation:sRGB;color-interpolation-filters:linearRGB;solid-color:#000000;solid-opacity:1;fill:#000000;fill-opacity:0.23125;fill-rule:nonzero;stroke:none;stroke-width:4.35114288;stroke-linecap:butt;stroke-linejoin:miter;stroke-miterlimit:4;stroke-dasharray:none;stroke-dashoffset:0;stroke-opacity:1;color-rendering:auto;image-rendering:auto;shape-rendering:auto;text-rendering:auto;enable-background:accumulate"
       d="m 22.265549,1026.6048 c -0.155962,0.024 -0.269489,0.1003 -0.419922,0.1953 -0.150433,0.095 -0.319169,0.2125 -0.486328,0.33 -0.167158,0.1176 -0.333179,0.2353 -0.474609,0.3243 -0.14143,0.09 -0.270622,0.1443 -0.294922,0.1543 0.01754,0 0.02585,0.01 -0.01367,-0.027 -0.03952,-0.037 -0.09625,-0.1142 -0.154297,-0.1992 -0.05805,-0.085 -0.118089,-0.1797 -0.193359,-0.2637 -0.07527,-0.084 -0.180874,-0.1858 -0.345703,-0.1758 l -0.02344,0 -0.02148,0.01 c -0.343555,0.09 -0.5884,0.3669 -0.837891,0.6191 -0.24949,0.2521 -0.498997,0.4827 -0.716797,0.5547 -0.03503,0.012 0.0067,0.02 -0.02148,-0.01 -0.02816,-0.03 -0.07459,-0.1167 -0.125,-0.2168 -0.05042,-0.1001 -0.104808,-0.2143 -0.210938,-0.3144 -0.106129,-0.102 -0.301786,-0.1548 -0.472656,-0.092 l -0.002,0 -0.002,0 c -0.16429,0.063 -0.366366,0.1927 -0.621094,0.3652 -0.254729,0.1726 -0.548773,0.3852 -0.83789,0.5996 -0.578236,0.4287 -1.139228,0.868 -1.294922,0.9844 l -0.0039,0 -0.0039,0 c -1.638006,1.3322 -2.441601,2.4462 -2.605469,3.4316 -0.163866,0.9853 0.366452,1.7907 1.238282,2.3789 1.743659,1.1763 4.901094,1.693 7.599609,1.961 l 0.05859,-0.4102 c -2.730432,-0.5036 -4.509445,-1.2325 -5.515625,-2.0293 -1.006171,-0.7968 -1.250348,-1.6187 -1,-2.4492 0.250349,-0.8305 1.050128,-1.6882 2.246094,-2.4062 1.195924,-0.7179 2.778007,-1.296 4.552734,-1.6036 l 0.002,0 c 0.518749,-0.093 1.126831,-0.1467 1.654297,-0.094 0.527583,0.053 0.958869,0.2153 1.169922,0.4844 0.211054,0.2692 0.267964,0.6801 -0.04883,1.3965 -0.316792,0.7164 -1.015481,1.6989 -2.251953,2.9882 l 0.226562,0.3379 c 2.041478,-0.802 3.720046,-2.309 4.175781,-3.6875 0.227868,-0.6893 0.112778,-1.3892 -0.46289,-1.8418 -0.568423,-0.4469 -1.523952,-0.6627 -2.964844,-0.5957 -0.0073,-0.034 -0.01548,-0.092 -0.02148,-0.1738 -0.0069,-0.096 -0.0097,-0.2067 -0.07031,-0.3281 -0.03033,-0.061 -0.08362,-0.1251 -0.160156,-0.1641 -0.07654,-0.044 -0.163321,-0.047 -0.244141,-0.035 z m 0.589844,1.1132 c 0.01472,-5e-4 0.02642,5e-4 0.04102,0 -0.0064,0.029 -0.0091,0.055 -0.0059,0.086 -0.01669,0 -0.03403,0 -0.05078,0 0.0054,-0.029 0.01814,-0.055 0.01563,-0.086 z m -0.03711,4.8536 c 0.0018,0 0.002,0.01 0.0039,0.01 -0.0068,0 -0.01271,0.01 -0.01953,0.012 0.0063,-0.01 0.0094,-0.012 0.01563,-0.02 z m -0.365235,4.6523 -0.0625,0.1992 -0.08203,0.1895 c 1.447632,0.6194 2.089294,1.3208 2.205078,1.9531 0.115773,0.6323 -0.263313,1.2933 -1.070312,1.8945 -1.613998,1.2024 -4.847733,2.0284 -8.173829,1.5742 l -0.002,0 -0.002,0 c -3.936567,-0.4718 -6.34375,-2.7187 -6.34375,-2.7187 l -0.28125,-0.2637 -0.1425781,0.836 c -0.1586476,-0.1473 -0.3673653,-0.3412 -0.9765625,-0.9004 l -0.4355468,-0.4004 0.089844,0.584 c 0,0 0.090529,0.592 0.3535156,1.291 0.262987,0.6991 0.6971552,1.5243 1.4316407,1.9883 l 0.2871093,-0.2852 c 0,0 -0.1085116,-0.1791 -0.1660156,-0.4023 -0.040082,-0.1555 -0.048428,-0.3073 0,-0.4395 l 1.7734374,1.4258 0.302734,-0.2793 c 0,0 -0.05131,-0.074 -0.06836,-0.1914 -0.0115,-0.079 0.0099,-0.1712 0.0625,-0.2715 0.36358,0.2897 2.121907,1.6216 4.367187,1.9609 -3.854564,0.7089 -5.8726288,-0.014 -6.93164,-0.9511 -1.2215513,-1.0807 -1.21875,-2.4668 -1.21875,-2.4668 l -0.4140625,0 c 0,0 -0.00168,0.2543 -0.080078,0.4824 -0.039197,0.114 -0.097501,0.2145 -0.1640624,0.2735 -0.066561,0.059 -0.1350178,0.09 -0.2734376,0.074 l -0.013672,0 -0.011719,0 c -0.2219229,0 -0.5722776,-0.2545 -0.8378906,-0.5469 -0.2656122,-0.2924 -0.4511719,-0.5859 -0.4511719,-0.5859 l -0.359375,0.209 c 0.00204,0 0.00577,0.01 0.00781,0.01 l -0.00195,0 c 0,0 0.00383,0.012 0.00391,0.012 1.9667964,3.5773 4.8028462,5.3721 7.75,5.9648 0.737975,0.1482 1.482671,0.2224 2.222656,0.2324 l 0,0 c 2.219952,0.028 4.39888,-0.5276 6.236328,-1.4004 2.44993,-1.1638 4.307988,-2.8821 4.826172,-4.6269 0.259092,-0.8724 0.165634,-1.7632 -0.376953,-2.5332 -0.540048,-0.7665 -1.504759,-1.4083 -2.958984,-1.877 0,0 -0.002,0 -0.002,0 -0.0066,-0.01 -0.01098,-0.01 -0.01758,-0.01 z"
       id="path3651-0-9-8"
       inkscape:connector-curvature="0" />
    <path
       inkscape:connector-curvature="0"
       style="color:#000000;font-style:normal;font-variant:normal;font-weight:normal;font-stretch:normal;font-size:medium;line-height:normal;font-family:sans-serif;text-indent:0;text-align:start;text-decoration:none;text-decoration-line:none;text-decoration-style:solid;text-decoration-color:#000000;letter-spacing:normal;word-spacing:normal;text-transform:none;direction:ltr;block-progression:tb;writing-mode:lr-tb;baseline-shift:baseline;text-anchor:start;clip-rule:nonzero;display:inline;overflow:visible;visibility:visible;opacity:1;isolation:auto;mix-blend-mode:normal;color-interpolation:sRGB;color-interpolation-filters:linearRGB;solid-color:#000000;solid-opacity:1;fill:#ffffff;fill-opacity:1;fill-rule:nonzero;stroke:none;stroke-width:4.35114288;stroke-linecap:butt;stroke-linejoin:miter;stroke-miterlimit:4;stroke-dasharray:none;stroke-dashoffset:0;stroke-opacity:1;color-rendering:auto;image-rendering:auto;shape-rendering:auto;text-rendering:auto;enable-background:accumulate"
       d="m 20.843497,1025.3891 c -0.155962,0.024 -0.269489,0.1003 -0.419922,0.1953 -0.150433,0.095 -0.319169,0.2126 -0.486328,0.3301 -0.167158,0.1176 -0.333179,0.2352 -0.474609,0.3242 -0.14143,0.09 -0.270622,0.1443 -0.294922,0.1543 0.01754,0 0.02585,0.01 -0.01367,-0.027 -0.03952,-0.037 -0.09625,-0.1142 -0.154297,-0.1992 -0.05805,-0.085 -0.118089,-0.1797 -0.193359,-0.2637 -0.07527,-0.084 -0.180874,-0.1858 -0.345703,-0.1758 l -0.02344,0 -0.02148,0.01 c -0.343555,0.09 -0.5884,0.367 -0.837891,0.6192 -0.24949,0.2521 -0.498997,0.4827 -0.716797,0.5547 -0.03503,0.012 0.0067,0.02 -0.02148,-0.01 -0.02816,-0.03 -0.07459,-0.1167 -0.125,-0.2168 -0.05042,-0.1001 -0.104808,-0.2144 -0.210938,-0.3145 -0.106129,-0.102 -0.301786,-0.1548 -0.472656,-0.092 l -0.002,0 -0.002,0 c -0.16429,0.064 -0.366366,0.1928 -0.621094,0.3653 -0.254729,0.1726 -0.548773,0.3852 -0.83789,0.5996 -0.578236,0.4287 -1.139228,0.868 -1.294922,0.9844 l -0.0039,0 -0.0039,0 c -1.638006,1.3322 -2.441601,2.4462 -2.605469,3.4316 -0.163866,0.9853 0.366452,1.7907 1.238282,2.3789 1.743659,1.1763 4.901094,1.693 7.599609,1.961 l 0.05859,-0.4102 c -2.730432,-0.5036 -4.509445,-1.2325 -5.515625,-2.0293 -1.006171,-0.7968 -1.250348,-1.6187 -1,-2.4492 0.250349,-0.8305 1.050128,-1.6883 2.246094,-2.4063 1.195924,-0.7179 2.778007,-1.2959 4.552734,-1.6035 l 0.002,0 c 0.518749,-0.093 1.126831,-0.1467 1.654297,-0.094 0.527583,0.053 0.958869,0.2152 1.169922,0.4843 0.211054,0.2692 0.267964,0.6801 -0.04883,1.3965 -0.316792,0.7164 -1.015481,1.699 -2.251953,2.9883 l 0.226562,0.3379 c 2.041478,-0.802 3.720046,-2.309 4.175781,-3.6875 0.227868,-0.6893 0.112778,-1.3892 -0.46289,-1.8418 -0.568423,-0.4469 -1.523952,-0.6627 -2.964844,-0.5957 -0.0073,-0.034 -0.01548,-0.092 -0.02148,-0.1738 -0.0069,-0.096 -0.0097,-0.2068 -0.07031,-0.3282 -0.03033,-0.061 -0.08362,-0.125 -0.160156,-0.164 -0.07654,-0.044 -0.163321,-0.047 -0.244141,-0.035 z m 0.589844,1.1133 c 0.01472,-6e-4 0.02642,5e-4 0.04102,0 -0.0064,0.029 -0.0091,0.056 -0.0059,0.086 -0.01669,0 -0.03403,0 -0.05078,0 0.0054,-0.029 0.01814,-0.055 0.01563,-0.086 z m -0.03711,4.8535 c 0.0018,0 0.002,0.01 0.0039,0.01 -0.0068,0 -0.01271,0.01 -0.01953,0.012 0.0063,-0.01 0.0094,-0.012 0.01563,-0.019 z m -0.365235,4.6524 -0.0625,0.1992 -0.08203,0.1894 c 1.447632,0.6194 2.089294,1.3209 2.205078,1.9532 0.115773,0.6323 -0.263313,1.2933 -1.070312,1.8945 -1.613998,1.2024 -4.847733,2.0284 -8.173829,1.5742 l -0.002,0 -0.002,0 c -3.9365666,-0.4718 -6.3437495,-2.7187 -6.3437495,-2.7187 l -0.28125,-0.2637 -0.1425781,0.8359 c -0.1586476,-0.1473 -0.3673653,-0.3412 -0.9765625,-0.9004 l -0.4355468,-0.4004 0.089844,0.584 c 0,0 0.090529,0.592 0.3535156,1.291 0.262987,0.6991 0.6971552,1.5243 1.4316407,1.9883 l 0.287203,-0.2851 c 0,0 -0.1085116,-0.1792 -0.1660156,-0.4024 -0.040082,-0.1555 -0.048428,-0.3072 0,-0.4394 l 1.7734376,1.4258 0.302734,-0.2793 c 0,0 -0.05131,-0.074 -0.06836,-0.1914 -0.0115,-0.079 0.0099,-0.1712 0.0625,-0.2715 0.3635796,0.2897 2.1219066,1.6216 4.3671866,1.9609 -3.854564,0.7089 -5.8726278,-0.014 -6.9316394,-0.9512 -1.2215513,-1.0807 -1.21875,-2.4668 -1.21875,-2.4668 l -0.4140625,0 c 0,0 -0.00168,0.2544 -0.080078,0.4825 -0.039197,0.114 -0.097501,0.2144 -0.1640624,0.2734 -0.066561,0.059 -0.1350178,0.09 -0.2734376,0.074 l -0.013672,0 -0.011719,0 c -0.2219232,0 -0.5722779,-0.2545 -0.8378909,-0.5469 -0.2656122,-0.2924 -0.4511719,-0.5859 -0.4511719,-0.5859 l -0.359375,0.2111 c 0.00204,0 0.00577,0.01 0.00781,0.01 l -0.00195,0 c 0,0 0.00383,0.012 0.00391,0.012 1.9667965,3.5773 4.8028466,5.3721 7.7499997,5.9648 0.737975,0.1482 1.482671,0.2224 2.222656,0.2324 l 0,0 c 2.219952,0.027 4.39888,-0.5276 6.236328,-1.4004 2.44993,-1.1638 4.307988,-2.8821 4.826172,-4.6269 0.259092,-0.8724 0.165634,-1.7632 -0.376953,-2.5332 -0.540048,-0.7665 -1.504759,-1.4083 -2.958984,-1.877 0,0 -0.002,0 -0.002,0 -0.0066,-0.01 -0.01098,-0.01 -0.01758,-0.01 z"
       id="path3651-0-9-8-7" />
  </g>
</svg>
